<svg width="61" height="51" viewBox="0 0 61 51" fill="none" xmlns="http://www.w3.org/2000/svg">
<path d="M2.08215 1.83154H58.9179" stroke="white" stroke-width="3.4" stroke-linecap="square"/>
<path d="M11.5807 49.1687C13.0744 49.1687 14.5345 48.7258 15.7765 47.896C17.0184 47.0661 17.9864 45.8867 18.558 44.5067C19.1296 43.1267 19.2791 41.6082 18.9877 40.1432C18.6963 38.6783 17.9771 37.3326 16.9209 36.2764C15.8647 35.2202 14.519 34.501 13.0541 34.2096C11.5891 33.9182 10.0706 34.0677 8.69063 34.6393C7.31066 35.2109 6.13117 36.1789 5.30133 37.4209C4.47149 38.6628 4.02856 40.1229 4.02856 41.6166C4.02856 42.6084 4.22391 43.5904 4.60344 44.5067C4.98297 45.4229 5.53925 46.2555 6.24054 46.9568C6.94182 47.658 7.77436 48.2143 8.69063 48.5939C9.6069 48.9734 10.5889 49.1687 11.5807 49.1687V49.1687Z" stroke="white" stroke-width="3.4" stroke-linecap="square"/>
<path d="M11.5807 34.0644V1.75366" stroke="white" stroke-width="3.4"/>
<path d="M26.7629 49.1686C28.2531 49.1532 29.7055 48.6973 30.9372 47.8581C32.1688 47.019 33.1247 45.8342 33.6844 44.453C34.2441 43.0717 34.3826 41.5558 34.0824 40.0959C33.7823 38.6361 33.0569 37.2978 31.9977 36.2494C30.9385 35.2009 29.5928 34.4894 28.13 34.2042C26.6672 33.9191 25.1527 34.0731 23.7772 34.6469C22.4018 35.2207 21.2269 36.1887 20.4004 37.4289C19.574 38.6691 19.133 40.1261 19.1329 41.6164C19.1328 42.6148 19.3307 43.6032 19.7151 44.5246C20.0995 45.446 20.6628 46.282 21.3723 46.9843C22.0818 47.6866 22.9236 48.2413 23.8489 48.6162C24.7741 48.9911 25.7646 49.1789 26.7629 49.1686V49.1686Z" stroke="white" stroke-width="3.4" stroke-linecap="square"/>
<path d="M26.7629 34.0644V1.75366" stroke="white" stroke-width="3.4"/>
<path d="M57.75 31.9623C58.5133 33.2417 58.8811 34.7183 58.8072 36.2063C58.7333 37.6942 58.2209 39.1271 57.3346 40.3245C56.4483 41.522 55.2276 42.4306 53.8261 42.9359C52.4247 43.4413 50.905 43.5208 49.4585 43.1646C48.0119 42.8083 46.703 42.0322 45.6965 40.9338C44.69 39.8355 44.0308 38.464 43.8019 36.9919C43.573 35.5197 43.7846 34.0128 44.4101 32.6607C45.0356 31.3086 46.0471 30.1717 47.3172 29.393C48.1646 28.8673 49.1077 28.5146 50.0921 28.3553C51.0766 28.196 52.0828 28.2332 53.0527 28.4649C54.0227 28.6965 54.9372 29.1179 55.7434 29.7048C56.5496 30.2918 57.2316 31.0326 57.75 31.8844V31.9623Z" stroke="white" stroke-width="3.4" stroke-linecap="square"/>
<path d="M48.5628 28.848L37.8964 1.83154" stroke="white" stroke-width="3.4"/>
</svg>
